<?xml version="1.0" standalone="no"?>
<!DOCTYPE svg PUBLIC "-//W3C//DTD SVG 20010904//EN"
 "http://www.w3.org/TR/2001/REC-SVG-20010904/DTD/svg10.dtd">
<svg version="1.0" xmlns="http://www.w3.org/2000/svg"
 width="1096.000000pt" height="1096.000000pt" viewBox="0 0 1096.000000 1096.000000"
 preserveAspectRatio="xMidYMid meet">
<metadata>
Created by potrace 1.14, written by Peter Selinger 2001-2017
</metadata>
<g transform="translate(0.000000,1096.000000) scale(0.100000,-0.100000)"
fill="#000000" stroke="none">
<path d="M2080 10941 c-90 -29 -151 -68 -285 -184 -219 -189 -321 -337 -340
-494 -9 -81 -15 -122 -20 -152 -2 -14 -7 -53 -11 -86 -3 -33 -8 -67 -9 -75 -2
-8 -6 -51 -10 -95 -4 -44 -9 -87 -10 -96 -3 -14 -8 -84 -20 -289 -22 -362 -22
-1042 -1 -1147 3 -11 8 -43 11 -70 4 -26 29 -142 56 -258 26 -115 51 -226 54
-245 3 -19 8 -42 10 -50 2 -8 6 -31 9 -50 3 -19 10 -60 16 -90 6 -30 13 -71
16 -90 2 -19 7 -44 9 -56 3 -12 7 -39 10 -60 3 -21 11 -66 16 -99 6 -33 13
-73 15 -90 2 -16 6 -43 8 -60 3 -16 10 -68 16 -115 11 -86 18 -135 25 -180 4
-22 37 -318 51 -445 10 -101 16 -142 30 -230 19 -121 23 -142 34 -195 5 -25
12 -63 16 -85 10 -57 10 -57 29 -121 19 -67 29 -122 50 -289 9 -66 17 -133 20
-150 6 -48 33 -265 40 -325 4 -30 8 -66 10 -80 2 -14 7 -50 10 -80 24 -209
124 -451 234 -567 35 -37 106 -153 164 -269 151 -303 324 -525 518 -666 194
-142 359 -243 522 -321 51 -25 130 -70 175 -100 242 -164 383 -219 559 -217
34 0 73 -5 87 -11 30 -14 25 -27 -29 -86 -73 -80 -98 -154 -111 -328 -3 -49
-8 -93 -11 -97 -6 -11 -4 -148 2 -183 10 -52 37 -128 67 -188 37 -75 38 -97
42 -897 4 -620 6 -663 36 -721 34 -65 131 -115 260 -134 25 -4 54 -9 65 -12
11 -3 90 -6 175 -7 176 -3 370 20 445 53 120 53 176 181 173 396 l-2 120 24
-1 c14 -1 81 -5 150 -9 68 -3 128 -9 132 -11 5 -3 6 -17 4 -32 -9 -48 -20
-225 -20 -304 0 -63 4 -83 20 -105 26 -35 69 -60 114 -68 19 -3 46 -7 60 -10
89 -17 348 -24 465 -12 170 16 291 57 360 119 39 36 54 160 49 396 -2 118 -6
248 -9 290 -2 42 -7 142 -10 222 -3 80 -7 183 -10 230 -25 468 -25 466 4 515
31 53 49 165 46 288 -5 180 -38 285 -138 435 -61 91 -90 157 -85 193 4 32 31
44 143 65 50 9 165 35 218 50 32 8 66 17 75 19 48 9 249 72 337 105 263 99
611 300 800 463 171 148 231 226 391 517 113 206 129 249 143 378 8 80 6 625
-3 737 -5 67 -12 141 -21 250 -2 28 -7 91 -10 140 -3 50 -8 110 -12 135 -3 25
-6 200 -8 390 -3 376 -10 447 -60 596 -13 39 -35 96 -49 127 -31 66 -38 121
-22 169 13 35 564 869 611 923 15 17 41 46 58 65 136 150 190 225 255 355 88
176 193 468 227 633 2 9 8 37 14 62 5 25 12 60 16 77 3 18 12 61 19 95 21 94
27 162 26 278 -1 58 -2 112 -2 120 0 8 -6 53 -14 100 -22 135 -50 200 -132
308 -84 111 -125 181 -177 304 -68 160 -139 203 -372 225 -43 4 -125 7 -183 8
-123 0 -201 -22 -290 -82 -66 -44 -87 -64 -210 -208 -52 -60 -102 -117 -111
-125 -9 -8 -60 -55 -114 -105 -55 -49 -106 -97 -115 -105 -18 -17 -175 -156
-205 -181 -117 -99 -172 -142 -310 -245 -88 -65 -167 -124 -175 -131 -8 -6
-112 -86 -230 -177 -118 -90 -343 -264 -500 -386 -309 -241 -366 -282 -450
-322 -167 -79 -331 -96 -600 -63 -19 3 -57 7 -85 11 -75 9 -127 29 -265 101
-69 36 -129 69 -135 73 -10 7 -78 44 -240 130 -312 166 -584 318 -675 378
-126 83 -221 184 -331 352 -96 146 -143 223 -194 315 -56 103 -193 310 -289
438 -54 73 -101 134 -105 137 -3 3 -31 34 -61 70 -30 36 -63 74 -74 85 -44 47
-127 165 -161 230 -65 123 -131 194 -227 245 -55 30 -168 73 -168 65 0 -2 -30
7 -67 21 -87 33 -188 38 -263 15z m245 -515 c109 -50 286 -248 450 -501 43
-66 88 -136 100 -155 13 -19 91 -142 175 -274 227 -358 293 -441 464 -589 39
-34 87 -73 105 -87 19 -14 104 -79 190 -144 183 -141 270 -195 406 -255 55
-24 156 -70 224 -103 165 -79 289 -127 471 -181 56 -17 282 -64 310 -65 8 0
35 -3 60 -7 68 -10 335 -13 388 -5 26 4 74 11 106 15 84 9 268 57 357 93 90
36 160 79 294 182 157 120 655 475 805 573 30 20 89 48 130 63 244 86 491 243
760 483 90 80 376 363 430 425 68 79 237 115 354 75 113 -39 171 -103 223
-247 59 -166 78 -300 62 -437 -8 -63 -75 -391 -83 -404 -2 -3 -7 -24 -10 -46
-4 -22 -8 -47 -11 -55 -2 -8 -6 -26 -9 -40 -60 -320 -104 -407 -322 -630 -98
-100 -109 -112 -269 -296 -148 -169 -212 -252 -260 -338 -33 -59 -102 -218
-111 -256 -2 -8 -12 -49 -23 -90 -11 -41 -25 -109 -32 -150 -6 -41 -13 -84
-15 -94 -26 -138 -19 -473 15 -661 6 -33 13 -78 17 -99 3 -22 43 -191 89 -375
46 -185 86 -352 89 -371 27 -180 34 -232 36 -280 2 -94 10 -201 14 -209 19
-30 29 -316 14 -386 -18 -89 -37 -145 -95 -289 -125 -311 -188 -411 -370 -586
-323 -311 -580 -488 -893 -615 -63 -26 -128 -53 -145 -60 -123 -55 -517 -175
-574 -175 -8 0 16 15 54 34 75 36 136 74 285 177 52 37 136 91 185 120 205
120 382 267 500 414 22 28 46 57 54 65 30 31 141 210 199 320 62 117 114 256
132 351 6 29 12 101 15 159 3 58 7 121 10 140 30 225 29 282 -12 435 -40 152
-116 263 -241 351 -37 27 -143 105 -237 174 -296 219 -486 332 -682 406 -56
21 -282 89 -329 98 -10 3 -46 12 -79 21 -64 17 -210 50 -260 59 -110 20 -795
30 -893 14 -249 -42 -650 -247 -828 -423 -77 -76 -394 -528 -394 -561 0 -7 -4
-14 -8 -16 -10 -4 -100 -181 -126 -248 -10 -25 -24 -58 -31 -75 -28 -62 -68
-202 -79 -279 -14 -91 -7 -223 19 -386 22 -131 34 -176 78 -290 74 -193 458
-795 580 -909 20 -19 73 -56 119 -82 46 -26 88 -53 95 -58 7 -6 14 -11 17 -11
3 0 20 -9 38 -21 l33 -20 -75 6 c-41 4 -78 9 -82 11 -8 5 -28 8 -128 20 -72 8
-158 36 -228 74 -67 35 -524 362 -613 439 -8 6 -32 25 -54 42 -49 37 -51 38
-155 124 -143 116 -293 251 -332 298 -44 51 -139 199 -246 382 -41 72 -102
174 -134 228 -163 274 -212 429 -208 657 1 69 3 166 4 215 1 50 -2 117 -5 150
-4 33 -10 91 -14 130 -4 38 -8 72 -10 75 -1 3 -6 28 -9 55 -4 28 -18 99 -32
160 -13 60 -26 119 -29 130 -2 11 -6 31 -9 45 -3 14 -20 102 -36 195 -17 94
-35 193 -40 220 -9 44 -6 453 4 710 12 296 18 398 22 418 11 50 3 161 -17 220
-11 34 -41 105 -66 157 -62 129 -150 347 -162 401 -5 24 -12 82 -16 129 -3 47
-7 108 -10 135 -3 28 -7 75 -10 106 -3 31 -7 85 -10 120 -9 116 -21 225 -40
359 -13 92 -13 329 0 395 23 116 52 215 94 324 27 69 66 173 86 231 72 204
146 297 268 336 62 19 106 17 162 -10z m2276 -4744 c185 -138 308 -270 378
-409 78 -156 108 -467 62 -638 -49 -178 -143 -310 -304 -425 -118 -85 -225
-112 -422 -106 -139 5 -147 6 -270 37 -107 27 -205 69 -304 130 -102 63 -113
84 -106 198 15 232 133 500 343 780 118 157 386 402 493 451 51 23 79 19 130
-18z m2551 -614 c84 -66 185 -173 232 -246 46 -70 88 -176 102 -252 7 -44 7
-236 0 -275 -3 -11 -5 -30 -5 -42 -2 -39 -47 -81 -109 -99 -80 -24 -80 -24
-157 -26 -363 -8 -609 353 -469 687 46 110 185 262 260 285 61 18 90 12 146
-32z m-2502 -1157 c-22 -17 -23 -21 -10 -38 24 -30 29 -31 93 -16 34 7 71 15
82 18 11 2 38 9 60 15 60 16 184 26 272 23 106 -3 220 -28 328 -69 525 -202
711 -267 825 -289 83 -16 252 -22 305 -11 11 2 39 7 63 11 24 4 70 17 103 30
32 13 59 22 59 20 0 -16 -143 -84 -252 -119 -302 -100 -482 -106 -725 -27
-116 38 -205 83 -329 166 -138 93 -243 139 -364 160 -60 11 -222 6 -300 -8
-41 -8 -115 -13 -165 -11 -92 3 -104 4 -171 23 -22 6 -52 11 -69 11 l-30 0 30
25 c32 26 90 56 165 86 57 23 61 23 30 0z m2413 -274 l-6 -48 -27 28 -27 27
31 21 c17 12 32 21 33 21 0 -1 -1 -23 -4 -49z m-839 -1098 c-33 -37 -155 -111
-228 -140 -40 -15 -136 -49 -215 -74 -185 -59 -201 -66 -249 -110 -64 -57 -90
-156 -70 -263 5 -26 11 -60 14 -77 9 -54 80 -189 133 -253 65 -78 117 -112
195 -125 54 -9 71 -7 156 17 52 15 102 29 110 31 8 2 54 16 103 30 48 14 125
36 171 49 46 13 89 27 95 30 6 4 11 2 11 -4 0 -10 -111 -86 -224 -151 -32 -19
-79 -46 -104 -61 -131 -76 -213 -103 -322 -103 -76 0 -90 3 -127 27 -37 24
-89 82 -148 163 -30 40 -58 27 -95 -43 -63 -121 -104 -142 -265 -137 -113 4
-122 5 -262 30 -201 37 -420 138 -553 254 l-35 31 71 -34 c70 -34 255 -100
304 -110 14 -3 48 -9 77 -15 92 -18 175 -25 289 -25 101 0 117 3 167 28 177
86 203 273 87 629 -46 141 -117 192 -282 203 -168 12 -346 69 -487 156 -55 34
-53 34 39 3 124 -42 227 -57 361 -52 157 6 234 -16 336 -99 23 -19 46 -34 51
-34 6 0 12 -4 14 -10 5 -16 45 1 58 26 7 13 31 36 53 51 39 27 44 28 181 29
78 1 152 4 166 7 90 18 250 67 335 103 55 23 102 43 104 43 2 1 -4 -8 -15 -20z"/>
</g>
</svg>
